<?xml version="1.0" encoding="utf-8"?>
<!-- Generator: Adobe Illustrator 23.0.3, SVG Export Plug-In . SVG Version: 6.00 Build 0)  -->
<svg version="1.1" id="Layer_1" xmlns="http://www.w3.org/2000/svg" xmlns:xlink="http://www.w3.org/1999/xlink" x="0px" y="0px"
	 viewBox="0 0 2500 2000" style="enable-background:new 0 0 2500 2000;" xml:space="preserve">
<style type="text/css">
	.st0{display:none;}
	.st1{fill:#47B571;}
	.st2{fill:#414042;}
	.st3{font-family:'Montserrat-SemiBold';}
	.st4{font-size:70.9665px;}
	.st5{letter-spacing:14;}
	.st6{font-family:'Montserrat-BoldItalic';}
	.st7{font-size:171.2956px;}
</style>
<rect class="st0" width="2500" height="2000"/>
<path class="st1" d="M766.71,1259.57L766.71,1259.57c-25.46,15.76-58.87,7.89-74.62-17.56l-22.14-35.77l-41.84,25.9
	c-7.24,4.48-16.74,2.24-21.22-4.99l0,0c-4.48-7.24-2.24-16.74,4.99-21.22l68.06-42.13l50.67,81.86l39.75-24.61l-77.06-124.5
	l-101.04,62.54c-25.46,15.76-58.87,7.89-74.62-17.56l0,0c-15.76-25.46-7.89-58.87,17.56-74.62l35.07-21.71l-26.92-43.5
	c-4.48-7.24-2.24-16.74,4.99-21.22l0,0c7.24-4.48,16.74-2.24,21.22,4.99l43.15,69.71l-81.16,50.24l24.61,39.75l120.92-74.85
	l-63.57-102.7c-15.76-25.46-7.89-58.87,17.56-74.62l2.89-1.79c25.46-15.76,58.87-7.89,74.62,17.56l22.74,36.73l43.98-27.22
	c7.24-4.48,16.74-2.24,21.22,4.99l0,0c4.48,7.24,2.24,16.74-4.99,21.22l-70.2,43.45l-51.27-82.82l-42.64,26.39l75.87,122.58
	l106.07-65.66c25.46-15.76,58.87-7.89,74.62,17.56l1.79,2.89c15.76,25.46,7.89,58.87-17.56,74.62l-37.21,23.03l26.33,42.53
	c4.48,7.24,2.24,16.74-4.99,21.22h0c-7.24,4.48-16.74,2.24-21.22-4.99l-42.56-68.75l83.3-51.56l-26.39-42.64l-125.95,77.96
	l64.76,104.63C800.03,1210.41,792.16,1243.82,766.71,1259.57z"/>
<g>
	<g>
		<text transform="matrix(1 0 0 1 1587.1045 1230.1592)" class="st2 st3 st4 st5">FINANCE</text>
	</g>
	<text transform="matrix(1 0 0 1 993.7998 1133.957)" class="st1 st6 st7">Rejuvenate</text>
</g>
</svg>
