<?xml version="1.0" standalone="no"?>
<!DOCTYPE svg PUBLIC "-//W3C//DTD SVG 20010904//EN"
 "http://www.w3.org/TR/2001/REC-SVG-20010904/DTD/svg10.dtd">
<svg version="1.0" xmlns="http://www.w3.org/2000/svg"
 width="250.000000pt" height="250.000000pt" viewBox="0 0 250.000000 250.000000"
 preserveAspectRatio="xMidYMid meet">
<metadata>
Created by potrace 1.14, written by Peter Selinger 2001-2017
</metadata>
<g transform="translate(0.000000,250.000000) scale(0.100000,-0.100000)"
fill="#000000" stroke="none">
<path d="M1377 2236 c-83 -23 -125 -61 -202 -184 -38 -61 -73 -112 -77 -112
-5 0 -58 32 -120 70 -62 39 -123 70 -136 70 -34 0 -62 -18 -73 -47 -19 -52 1
-72 188 -189 97 -60 181 -110 187 -111 9 -2 76 101 241 374 l20 33 105 -65
c58 -36 104 -71 102 -78 -3 -9 -174 -289 -348 -569 l-23 -37 -282 175 c-155
95 -298 178 -318 184 -125 35 -250 -21 -316 -141 -26 -47 -30 -64 -30 -134 0
-129 35 -175 205 -280 52 -32 97 -60 99 -61 2 -2 -29 -55 -68 -119 -39 -64
-71 -127 -71 -141 0 -32 42 -74 73 -74 14 0 34 8 45 18 26 21 232 353 226 363
-2 4 -94 63 -204 131 -137 84 -198 127 -195 137 16 42 122 200 132 196 8 -3
603 -367 621 -380 2 -2 -72 -124 -164 -271 -92 -148 -173 -283 -180 -301 -17
-40 -18 -132 -2 -187 16 -55 109 -148 164 -164 98 -29 207 -6 271 56 21 21 65
81 97 135 37 61 64 96 72 93 7 -3 57 -32 110 -66 53 -34 109 -64 125 -67 55
-11 102 73 67 119 -14 18 -357 232 -362 227 -2 -2 -56 -89 -121 -194 -64 -104
-121 -194 -126 -199 -9 -10 -199 100 -199 115 0 10 356 588 374 606 8 9 71
-25 271 -149 143 -88 277 -167 298 -174 140 -50 299 34 342 180 19 62 19 90 0
152 -21 71 -72 124 -186 195 -54 34 -99 66 -99 70 0 4 32 58 70 120 39 62 70
123 70 136 0 33 -43 73 -78 73 -17 0 -37 -9 -49 -22 -21 -23 -223 -347 -223
-358 0 -3 90 -61 200 -129 122 -76 197 -128 193 -135 -43 -73 -115 -186 -119
-186 -5 0 -586 359 -596 368 -4 4 63 120 149 257 184 297 192 313 200 374 21
182 -172 346 -350 297z"/>
</g>
</svg>
